<svg width="38" height="38" viewBox="0 0 38 38" fill="none" xmlns="http://www.w3.org/2000/svg">
<path d="M15.656 15.9409C14.573 15.9409 13.718 16.8909 13.718 18.0499C13.718 19.2089 14.592 20.1589 15.656 20.1589C16.739 20.1589 17.594 19.2089 17.594 18.0499C17.613 16.8909 16.739 15.9409 15.656 15.9409ZM22.591 15.9409C21.508 15.9409 20.653 16.8909 20.653 18.0499C20.653 19.2089 21.527 20.1589 22.591 20.1589C23.674 20.1589 24.529 19.2089 24.529 18.0499C24.529 16.8909 23.674 15.9409 22.591 15.9409Z" fill="white"/>
<path d="M31.825 0H6.36497C4.21797 0 2.46997 1.748 2.46997 3.914V29.602C2.46997 31.768 4.21797 33.516 6.36497 33.516H27.911L26.904 30.001L29.336 32.262L31.635 34.39L35.72 38V3.914C35.72 1.748 33.972 0 31.825 0ZM24.491 24.814C24.491 24.814 23.807 23.997 23.237 23.275C25.726 22.572 26.676 21.014 26.676 21.014C25.897 21.527 25.156 21.888 24.491 22.135C23.541 22.534 22.629 22.8 21.736 22.952C19.912 23.294 18.24 23.199 16.815 22.933C15.732 22.724 14.801 22.42 14.022 22.116C13.585 21.945 13.11 21.736 12.635 21.47C12.578 21.432 12.521 21.413 12.464 21.375C12.426 21.356 12.407 21.337 12.388 21.318C12.046 21.128 11.856 20.995 11.856 20.995C11.856 20.995 12.768 22.515 15.181 23.237C14.611 23.959 13.908 24.814 13.908 24.814C9.70897 24.681 8.11297 21.926 8.11297 21.926C8.11297 15.808 10.849 10.849 10.849 10.849C13.585 8.797 16.188 8.854 16.188 8.854L16.378 9.082C12.958 10.07 11.381 11.571 11.381 11.571C11.381 11.571 11.799 11.343 12.502 11.02C14.535 10.127 16.15 9.88 16.815 9.823C16.929 9.804 17.024 9.785 17.138 9.785C18.297 9.633 19.608 9.595 20.976 9.747C22.781 9.956 24.719 10.488 26.695 11.571C26.695 11.571 25.194 10.146 21.964 9.158L22.23 8.854C22.23 8.854 24.833 8.797 27.569 10.849C27.569 10.849 30.305 15.808 30.305 21.926C30.305 21.926 28.69 24.681 24.491 24.814Z" fill="white"/>
</svg>
