<svg width="38" height="38" viewBox="0 0 38 38" fill="none" xmlns="http://www.w3.org/2000/svg">
<path fill-rule="evenodd" clip-rule="evenodd" d="M0 19C0 8.50659 8.50659 0 19 0C29.4934 0 38 8.50659 38 19C38 29.4934 29.4934 38 19 38C8.50659 38 0 29.4934 0 19ZM9.5 19.199C9.5 13.9696 13.7416 9.728 18.9709 9.728C24.2003 9.728 28.4419 13.9696 28.5 19.199C28.5 23.3824 25.8272 26.9268 22.0504 28.2051C21.5856 28.2632 21.4113 27.9727 21.4113 27.7402V25.1256C21.4113 24.254 21.1208 23.673 20.7722 23.3824C22.8639 23.15 25.0719 22.3947 25.0719 18.7341C25.0719 17.6882 24.6651 16.8167 24.0841 16.1775C24.0887 16.1593 24.0951 16.1364 24.1027 16.109C24.1916 15.7881 24.4497 14.8569 23.9679 13.6791C23.9679 13.6791 23.1544 13.4467 21.3532 14.6668C20.5979 14.4925 19.7844 14.3763 18.9709 14.3763C18.1575 14.3763 17.3441 14.4344 16.5887 14.6668C14.7874 13.4467 13.974 13.6791 13.974 13.6791C13.4605 14.9344 13.7874 15.9095 13.8544 16.1093L13.8578 16.1194C13.2186 16.8167 12.87 17.6301 12.87 18.676C12.87 22.3366 15.078 23.15 17.1698 23.3824C16.9373 23.6149 16.6468 24.0216 16.5887 24.6607C16.0658 24.8931 14.7294 25.2999 13.8578 23.8473C13.8578 23.8473 13.3349 22.9176 12.4052 22.8595C12.4052 22.8595 11.4756 22.8595 12.3471 23.4405C12.3471 23.4405 12.9863 23.7311 13.3929 24.835C13.3929 24.835 13.974 26.6944 16.5887 26.1133V27.7402C16.5887 27.9727 16.4144 28.2632 15.9496 28.2051C12.2309 26.9268 9.5 23.3824 9.5 19.199Z" fill="white"/>
</svg>
