<svg width="38" height="38" viewBox="0 0 38 38" fill="none" xmlns="http://www.w3.org/2000/svg">
<path fill-rule="evenodd" clip-rule="evenodd" d="M38 19C38 29.4934 29.4934 38 19 38C8.50659 38 0 29.4934 0 19C0 8.50659 8.50659 0 19 0C29.4934 0 38 8.50659 38 19ZM28.8889 16.2222C30.4222 16.2222 31.6667 17.4666 31.6667 18.9999C31.6667 20.1333 30.9778 21.111 30.0667 21.5555C30.1111 21.8222 30.1333 22.0888 30.1333 22.3777C30.1333 26.6444 25.1778 30.0888 19.0445 30.0888C12.9111 30.0888 7.95556 26.6444 7.95556 22.3777C7.95556 22.0888 7.97779 21.7999 8.02223 21.5333C7.04445 21.0888 6.37779 20.1333 6.37779 18.9999C6.37779 17.4666 7.62223 16.2222 9.15557 16.2222C9.8889 16.2222 10.5778 16.5333 11.0667 16.9999C12.9778 15.5999 15.6222 14.7333 18.5778 14.6444L19.9778 8.02216C20.0222 7.88883 20.0889 7.77771 20.2 7.71105C20.3111 7.64438 20.4445 7.62216 20.5778 7.64438L25.1778 8.62216C25.4889 7.95549 26.1556 7.51105 26.9333 7.51105C28.0222 7.51105 28.9111 8.39994 28.9111 9.48883C28.9111 10.5777 28.0222 11.4666 26.9333 11.4666C25.8667 11.4666 25 10.6222 24.9556 9.57771L20.8445 8.71105L19.5778 14.6444C22.4667 14.7555 25.0889 15.6444 26.9778 16.9999C27.4667 16.511 28.1333 16.2222 28.8889 16.2222ZM14.6445 18.9999C13.5556 18.9999 12.6667 19.8888 12.6667 20.9777C12.6667 22.0666 13.5556 22.9555 14.6445 22.9555C15.7333 22.9555 16.6222 22.0666 16.6222 20.9777C16.6222 19.8888 15.7333 18.9999 14.6445 18.9999ZM19.0222 27.6444C19.7778 27.6444 22.3556 27.5555 23.7111 26.1999C23.9111 25.9999 23.9111 25.6888 23.7556 25.4666C23.5556 25.2666 23.2222 25.2666 23.0222 25.4666C22.1556 26.3111 20.3556 26.6222 19.0445 26.6222C17.7333 26.6222 15.9111 26.3111 15.0667 25.4666C14.8667 25.2666 14.5333 25.2666 14.3333 25.4666C14.1333 25.6666 14.1333 25.9999 14.3333 26.1999C15.6667 27.5333 18.2667 27.6444 19.0222 27.6444ZM21.3778 20.9777C21.3778 22.0666 22.2667 22.9555 23.3556 22.9555C24.4445 22.9555 25.3333 22.0666 25.3333 20.9777C25.3333 19.8888 24.4445 18.9999 23.3556 18.9999C22.2667 18.9999 21.3778 19.8888 21.3778 20.9777Z" fill="white"/>
</svg>
