<svg width="341" height="540" viewBox="0 0 341 540" fill="none" xmlns="http://www.w3.org/2000/svg">
<path opacity="0.07" fill-rule="evenodd" clip-rule="evenodd" d="M-198.755 345.831C-211.41 318.253 -173.816 293.635 -165.698 264.788C-160.983 248.036 -159.359 230.25 -161.228 212.488C-164.827 178.268 -209.084 125.197 -181.698 112.684C-147.914 97.2491 -120.484 160.566 -86.4198 178.309C-76.5023 183.475 -63.5863 185.255 -54.6257 178.874C-21.7531 155.462 -6.91231 89.9639 32.4363 93.6625C60.3466 96.2859 39.4029 156.417 44.4244 188.184C47.7826 209.428 49.5956 230.645 57.237 250.556C68.9144 280.983 110.205 304.996 100.997 335.595C91.928 365.733 44.2544 345.106 22.7989 364.996C3.35723 383.018 13.1872 436.813 -11.9689 440.316C-39.6162 444.166 -53.4948 396.62 -77.4836 378.959C-91.2642 368.813 -106.71 363.257 -122.488 358.947C-147.893 352.007 -186.485 372.566 -198.755 345.831Z" fill="white"/>
<path opacity="0.38" fill-rule="evenodd" clip-rule="evenodd" d="M-94.9588 298.862C-88.8365 268.608 -44.9627 277.077 -21.7809 260.927C-8.31867 251.549 3.31757 239.138 12.1964 224.211C29.3023 195.453 25.4493 122.79 54.2522 133.102C89.7838 145.823 74.4497 214.104 90.8745 252.379C95.6565 263.522 104.766 274.254 115.523 275.88C154.985 281.846 204.798 242.57 233.555 273.948C253.953 296.205 202.473 326.951 187.913 354.867C178.176 373.535 167.241 391.061 161.646 411.819C153.095 443.541 171.545 491.85 146.487 508.548C121.806 524.994 96.3696 474.641 67.9283 474.269C42.1566 473.932 18.5425 522.167 -3.26036 506.589C-27.2224 489.469 -10.4295 443.071 -18.9868 412.17C-23.9026 394.419 -32.8007 378.966 -42.6848 364.224C-58.6003 340.487 -100.894 328.192 -94.9588 298.862Z" fill="white"/>
<path opacity="0.69" fill-rule="evenodd" clip-rule="evenodd" d="M-4.79813 338.63C17.2302 319.9 46.6326 358.911 73.929 363.663C89.7806 366.422 105.937 365.498 121.376 360.595C151.122 351.15 189.55 292.417 206.143 321.682C226.612 357.784 175.711 398.936 166.701 440.536C164.078 452.648 165.065 467.649 172.531 476.868C199.918 510.686 261.18 517.38 265.725 562.812C268.948 595.038 211.249 580.549 183.971 591.232C165.728 598.376 147.203 603.754 131 615.573C106.24 633.634 93.0877 684.451 64.0143 678.73C35.38 673.096 44.2465 615.532 22.2679 594.178C2.35224 574.829 -43.5777 594.431 -51.706 566.302C-60.6394 535.387 -21.0794 512.145 -10.1351 482.042C-3.84806 464.75 -1.97883 446.275 -1.28448 427.617C-0.166436 397.573 -26.1543 356.789 -4.79813 338.63Z" fill="white"/>
<path fill-rule="evenodd" clip-rule="evenodd" d="M25.2633 435.002C52.8605 436.586 53.0514 488.812 71.2414 512.665C81.8047 526.517 94.7104 537.709 109.344 545.259C137.537 559.804 200.598 542.17 196.556 577.318C191.569 620.677 129.019 615.349 98.3014 641.27C89.3584 648.816 81.5275 661.288 81.9692 674.011C83.5895 720.686 126.687 771.111 104.16 810.029C88.1812 837.633 52.2753 783.734 25.2633 771.977C7.19905 764.114 -10.0713 754.661 -29.249 751.962C-58.5558 747.838 -97.7218 777.92 -116.718 751.998C-135.428 726.467 -95.6825 687.943 -100.295 655.017C-104.475 625.18 -150.881 606.649 -141.004 578.633C-130.15 547.843 -86.5397 558.826 -60.9233 543.333C-46.2078 534.433 -34.1997 521.349 -22.9867 507.255C-4.9314 484.56 -1.49191 433.466 25.2633 435.002Z" fill="white"/>
</svg>
