<svg width="38" height="38" viewBox="0 0 38 38" fill="none" xmlns="http://www.w3.org/2000/svg">
<g clip-path="url(#clip0)">
<path d="M11.9544 34.4376C26.2905 34.4376 34.1339 22.5574 34.1339 12.258C34.1339 11.9241 34.1265 11.5826 34.1117 11.2487C35.6375 10.1452 36.9542 8.77849 38 7.21264C36.579 7.84487 35.0703 8.25778 33.5254 8.43725C35.152 7.46219 36.37 5.93042 36.9535 4.12589C35.4232 5.0328 33.7497 5.67256 32.0046 6.01772C30.8288 4.76839 29.2742 3.94119 27.5812 3.664C25.8881 3.38682 24.1509 3.67508 22.6381 4.48424C21.1253 5.2934 19.9212 6.57837 19.2119 8.1405C18.5027 9.70262 18.3278 11.4549 18.7143 13.1264C15.6156 12.9709 12.5842 12.166 9.81664 10.7637C7.04904 9.36154 4.60701 7.39336 2.64887 4.98682C1.65363 6.70272 1.34909 8.73319 1.79713 10.6656C2.24517 12.5979 3.41218 14.2872 5.06098 15.3901C3.82316 15.3508 2.61246 15.0175 1.52891 14.4178V14.5143C1.5278 16.315 2.15032 18.0605 3.29066 19.4541C4.43099 20.8478 6.01876 21.8035 7.78406 22.1588C6.63742 22.4725 5.43397 22.5183 4.26684 22.2924C4.76497 23.841 5.73416 25.1955 7.03914 26.1668C8.34412 27.1381 9.91978 27.6777 11.5462 27.7104C8.78501 29.8793 5.37411 31.0558 1.86289 31.0502C1.2402 31.0493 0.618132 31.0111 0 30.9359C3.56702 33.2244 7.71642 34.4398 11.9544 34.4376Z" fill="white"/>
</g>
<defs>
<clipPath id="clip0">
<rect width="38" height="38" fill="white"/>
</clipPath>
</defs>
</svg>
